<?xml version="1.0" encoding="UTF-8"?>
<svg version="1.1" xmlns="http://www.w3.org/2000/svg" width="739" height="739">
<path d="M0 0 C13.65297456 -0.35197226 27.25695488 0.51595215 40.87768555 1.35913086 C48.80111817 1.84436248 56.68634616 2.22651605 64.62890625 2.07080078 C64.62890625 2.73080078 64.62890625 3.39080078 64.62890625 4.07080078 C65.28890625 4.07080078 65.94890625 4.07080078 66.62890625 4.07080078 C66.62890625 3.41080078 66.62890625 2.75080078 66.62890625 2.07080078 C67.28890625 2.07080078 67.94890625 2.07080078 68.62890625 2.07080078 C68.62890625 2.73080078 68.62890625 3.39080078 68.62890625 4.07080078 C69.50691895 4.08933105 70.38493164 4.10786133 71.28955078 4.12695312 C83.97483465 4.6373269 96.09822119 7.11734147 108.50390625 9.69580078 C111.65604836 10.34614354 114.80872881 10.99329057 117.96316528 11.63241577 C119.90994616 12.02725217 121.85539455 12.42872976 123.79928589 12.83755493 C124.66844635 13.01458954 125.53760681 13.19162415 126.43310547 13.37402344 C127.19759003 13.53311188 127.96207458 13.69220032 128.74972534 13.85610962 C130.7172216 14.25408003 130.7172216 14.25408003 132.62890625 13.07080078 C132.62890625 13.73080078 132.62890625 14.39080078 132.62890625 15.07080078 C133.31855469 15.18037109 134.00820313 15.28994141 134.71875 15.40283203 C140.92296341 16.44963347 146.72847953 17.88545755 152.62890625 20.07080078 C152.95890625 19.41080078 153.28890625 18.75080078 153.62890625 18.07080078 C153.95890625 18.73080078 154.28890625 19.39080078 154.62890625 20.07080078 C156.90139462 21.02112297 156.90139462 21.02112297 159.56640625 21.75830078 C160.46230469 22.03029297 161.35820313 22.30228516 162.28125 22.58251953 C164.63631861 23.32541749 164.63631861 23.32541749 166.62890625 22.07080078 C166.95890625 22.73080078 167.28890625 23.39080078 167.62890625 24.07080078 C169.92311133 25.07391473 169.92311133 25.07391473 172.73046875 25.94580078 C173.77847656 26.29126953 174.82648437 26.63673828 175.90625 26.99267578 C177.56333984 27.52634766 177.56333984 27.52634766 179.25390625 28.07080078 C180.87619141 28.60447266 180.87619141 28.60447266 182.53125 29.14892578 C191.40091357 32.52717112 191.40091357 32.52717112 200.62890625 34.07080078 C201.0671875 34.52068359 201.50546875 34.97056641 201.95703125 35.43408203 C203.9470284 37.38223344 205.82672319 38.16054502 208.37890625 39.25830078 C215.06549195 42.50885996 218.80736706 47.01531568 222.56640625 53.32080078 C224.37074163 59.68904329 224.52045378 66.67920065 222.62890625 73.07080078 C221.96890625 73.07080078 221.30890625 73.07080078 220.62890625 73.07080078 C220.44521484 74.09753906 220.44521484 74.09753906 220.2578125 75.14501953 C219.54466028 78.46272767 218.5803676 81.64516615 217.56640625 84.88330078 C217.20417969 86.04474609 216.84195313 87.20619141 216.46875 88.40283203 C216.19160156 89.28326172 215.91445313 90.16369141 215.62890625 91.07080078 C214.96890625 91.07080078 214.30890625 91.07080078 213.62890625 91.07080078 C213.1478235 92.48681792 212.66912484 93.90364515 212.19140625 95.32080078 C211.92457031 96.10970703 211.65773438 96.89861328 211.3828125 97.71142578 C210.60600986 100.01686579 210.60600986 100.01686579 210.15625 102.21923828 C208.47185246 108.13334521 200.68979449 112.17261046 195.62890625 115.07080078 C181.77365563 120.51393495 167.72800622 113.95146012 154.56640625 109.19580078 C125.11690952 98.6197122 94.67132961 92.24450462 63.66992188 88.4453125 C59.5473809 87.93760715 55.43221831 87.37990122 51.31640625 86.82080078 C49.42067159 86.57005367 47.5248885 86.31966892 45.62890625 86.07080078 C45.62890625 86.73080078 45.62890625 87.39080078 45.62890625 88.07080078 C44.96890625 88.07080078 44.30890625 88.07080078 43.62890625 88.07080078 C43.62890625 87.41080078 43.62890625 86.75080078 43.62890625 86.07080078 C11.22639688 84.69446283 -20.36908177 84.94105123 -52.61401367 88.8112793 C-55.21994283 89.05657308 -57.75567886 89.1182561 -60.37109375 89.07080078 C-60.70109375 89.73080078 -61.03109375 90.39080078 -61.37109375 91.07080078 C-63.74780273 91.3684082 -63.74780273 91.3684082 -66.9296875 91.48876953 C-74.95213721 91.99842591 -82.62552952 93.5748382 -90.43359375 95.38330078 C-91.18043427 95.55453461 -91.92727478 95.72576843 -92.69674683 95.90219116 C-178.94959609 115.87783885 -263.07280515 165.05218722 -320.37109375 233.07080078 C-321.25633851 234.08250908 -322.14321343 235.09279213 -323.03125 236.10205078 C-331.37396444 245.63286204 -339.33919366 255.52295065 -346.37109375 266.07080078 C-347.80356175 267.97043909 -349.24176904 269.8657544 -350.68359375 271.75830078 C-356.98750888 279.87481392 -356.98750888 279.87481392 -361.37109375 289.07080078 C-362.3639493 290.07789455 -363.36483392 291.07710005 -364.37109375 292.07080078 C-365.30184878 293.49162405 -366.18691425 294.94297707 -367.03515625 296.41455078 C-367.51726562 297.24857422 -367.999375 298.08259766 -368.49609375 298.94189453 C-369.23859375 300.24320312 -369.23859375 300.24320312 -369.99609375 301.57080078 C-370.49882812 302.43833984 -371.0015625 303.30587891 -371.51953125 304.19970703 C-374.28827561 308.97632521 -374.28827561 308.97632521 -376.37109375 314.07080078 C-377.03109375 314.07080078 -377.69109375 314.07080078 -378.37109375 314.07080078 C-378.64203857 314.93560059 -378.9129834 315.80040039 -379.19213867 316.69140625 C-380.34150067 319.98597423 -381.69769954 323.01058374 -383.234375 326.14111328 C-383.79189453 327.28580078 -384.34941406 328.43048828 -384.92382812 329.60986328 C-385.50455078 330.79322266 -386.08527344 331.97658203 -386.68359375 333.19580078 C-391.57219734 343.16124412 -396.20115449 353.15619218 -400.05859375 363.57080078 C-401.37109375 367.07080078 -401.37109375 367.07080078 -402.29003906 368.82666016 C-403.79376857 371.9482233 -404.8656663 375.20240881 -405.98046875 378.47705078 C-406.49316681 379.95893333 -407.00619889 381.44070034 -407.51953125 382.92236328 C-408.31711838 385.23332087 -409.11229738 387.54500618 -409.90136719 389.85888672 C-419.35805126 417.5372773 -419.35805126 417.5372773 -431.74609375 424.38330078 C-439.1605484 426.32518176 -445.05571126 426.16091006 -452.37109375 424.07080078 C-453.03109375 424.40080078 -453.69109375 424.73080078 -454.37109375 425.07080078 C-454.70109375 424.41080078 -455.03109375 423.75080078 -455.37109375 423.07080078 C-457.49140158 422.2435913 -459.64991214 421.51369948 -461.8203125 420.82861328 C-463.15691789 420.39767596 -464.49350587 419.96668461 -465.83007812 419.53564453 C-467.93786332 418.86606385 -470.04659013 418.19958169 -472.15600586 417.53515625 C-474.19252846 416.89078121 -476.2251716 416.2351124 -478.2578125 415.57861328 C-479.47686279 415.19334473 -480.69591309 414.80807617 -481.9519043 414.41113281 C-486.94732098 412.45291521 -491.12646993 409.78566272 -494.62109375 405.69580078 C-495.100625 405.15181641 -495.58015625 404.60783203 -496.07421875 404.04736328 C-500.25139838 397.6809389 -500.21245214 390.38027651 -499.37109375 383.07080078 C-497.90149832 376.81661967 -495.61759139 370.7903236 -493.43359375 364.75830078 C-492.58108254 362.36241276 -491.73460473 359.9646729 -490.89659119 357.56367493 C-490.3784208 356.08330206 -489.8514976 354.60595035 -489.3139801 353.13249207 C-487.64832733 348.42915406 -486.84121087 344.04165424 -486.37109375 339.07080078 C-485.71109375 339.07080078 -485.05109375 339.07080078 -484.37109375 339.07080078 C-484.15195312 338.4862915 -483.9328125 337.90178223 -483.70703125 337.29956055 C-470.57517427 302.62491888 -453.70209779 269.07519718 -433.37109375 238.07080078 C-432.68789063 237.01248047 -432.0046875 235.95416016 -431.30078125 234.86376953 C-421.11994541 219.2943323 -410.06994951 203.95454783 -397.80859375 189.94580078 C-395.40811923 187.38344362 -395.40811923 187.38344362 -394.53125 185.20361328 C-392.94027313 182.27878711 -390.7676522 180.3843759 -388.37109375 178.07080078 C-385.97373751 175.57098729 -383.61180325 173.03804811 -381.24609375 170.50830078 C-380.58230713 169.80012207 -379.91852051 169.09194336 -379.23461914 168.36230469 C-375.39056523 164.25437495 -371.58544729 160.11549199 -367.80859375 155.94580078 C-359.16363621 146.48795917 -350.16477446 137.3421477 -340.37109375 129.07080078 C-339.16794219 128.02936501 -337.96627274 126.98621591 -336.765625 125.94189453 C-336.10618896 125.36834229 -335.44675293 124.79479004 -334.76733398 124.20385742 C-334.10032471 123.62369873 -333.43331543 123.04354004 -332.74609375 122.44580078 C-329.20122164 119.36481106 -325.65323385 116.29231533 -322.03515625 113.29736328 C-319.41856542 111.17767316 -319.41856542 111.17767316 -317.37109375 109.07080078 C-316.13548813 108.21626979 -314.88264536 107.38654092 -313.62109375 106.57080078 C-309.33061995 103.73151665 -305.08505194 100.83457727 -300.87109375 97.88330078 C-300.24750977 97.45533203 -299.62392578 97.02736328 -298.98144531 96.58642578 C-295.29107997 94.03911398 -295.29107997 94.03911398 -293.37109375 90.07080078 C-291.43359375 89.44580078 -291.43359375 89.44580078 -289.37109375 89.07080078 C-287.04033446 88.11214569 -287.04033446 88.11214569 -285.37109375 85.07080078 C-284.04574011 84.70703351 -282.71071324 84.37789767 -281.37109375 84.07080078 C-279.79491069 83.14822264 -278.25356765 82.16433226 -276.74609375 81.13330078 C-275.97007812 80.60865234 -275.1940625 80.08400391 -274.39453125 79.54345703 C-272.28488183 78.0883372 -272.28488183 78.0883372 -270.37109375 76.07080078 C-268.70874362 75.39344249 -267.04140272 74.72828854 -265.37109375 74.07080078 C-263.62212489 73.10585245 -261.89254795 72.10496368 -260.18359375 71.07080078 C-258.89388672 70.29736328 -258.89388672 70.29736328 -257.578125 69.50830078 C-255.28649469 68.1239296 -255.28649469 68.1239296 -253.37109375 66.07080078 C-252.19546875 65.76142578 -251.01984375 65.45205078 -249.80859375 65.13330078 C-248.67421875 64.78267578 -247.53984375 64.43205078 -246.37109375 64.07080078 C-246.04109375 63.08080078 -245.71109375 62.09080078 -245.37109375 61.07080078 C-244.38109375 61.07080078 -243.39109375 61.07080078 -242.37109375 61.07080078 C-240.38358318 60.18569221 -238.42915924 59.22548619 -236.49609375 58.22705078 C-234.77132812 57.34726563 -234.77132812 57.34726563 -233.01171875 56.44970703 C-231.79781997 55.82409739 -230.58428193 55.19778731 -229.37109375 54.57080078 C-226.99946854 53.34512361 -224.62425456 52.12762608 -222.24609375 50.91455078 C-221.19164062 50.36992188 -220.1371875 49.82529297 -219.05078125 49.26416016 C-216.37109375 48.07080078 -216.37109375 48.07080078 -213.37109375 48.07080078 C-213.04109375 47.08080078 -212.71109375 46.09080078 -212.37109375 45.07080078 C-211.56671875 44.94705078 -210.76234375 44.82330078 -209.93359375 44.69580078 C-209.08796875 44.48955078 -208.24234375 44.28330078 -207.37109375 44.07080078 C-207.04109375 43.41080078 -206.71109375 42.75080078 -206.37109375 42.07080078 C-204.79026075 41.88031259 -203.20930573 41.69080894 -201.62792969 41.50488281 C-196.71535402 40.5599932 -192.11824704 38.37298197 -187.49609375 36.50830078 C-178.21027986 32.84417599 -168.8852609 29.47013039 -159.37109375 26.44580078 C-158.29746582 26.10347412 -157.22383789 25.76114746 -156.11767578 25.40844727 C-148.65932565 23.07080078 -148.65932565 23.07080078 -146.37109375 23.07080078 C-146.04109375 22.41080078 -145.71109375 21.75080078 -145.37109375 21.07080078 C-143.58768153 20.84430083 -141.80270956 20.62781705 -140.01416016 20.44628906 C-134.26906551 19.6301099 -128.66883774 17.96344881 -123.05859375 16.50830078 C-120.54249345 15.85795821 -118.02560108 15.21067001 -115.5078125 14.56689453 C-114.40139404 14.27999756 -113.29497559 13.99310059 -112.1550293 13.69750977 C-109.37109375 13.07080078 -109.37109375 13.07080078 -106.37109375 13.07080078 C-106.04109375 12.41080078 -105.71109375 11.75080078 -105.37109375 11.07080078 C-105.04109375 11.40080078 -104.71109375 11.73080078 -104.37109375 12.07080078 C-101.61294888 11.66675726 -98.90015669 11.19623652 -96.1640625 10.67236328 C-95.32829178 10.51794769 -94.49252106 10.3635321 -93.63142395 10.20443726 C-90.04735064 9.54210782 -86.46577146 8.86671952 -82.8840332 8.19189453 C-73.06494702 6.34939909 -63.37429249 4.54769005 -53.37109375 4.07080078 C-53.37109375 3.41080078 -53.37109375 2.75080078 -53.37109375 2.07080078 C-52.38109375 2.07080078 -51.39109375 2.07080078 -50.37109375 2.07080078 C-50.37109375 2.73080078 -50.37109375 3.39080078 -50.37109375 4.07080078 C-49.71109375 3.74080078 -49.05109375 3.41080078 -48.37109375 3.07080078 C-46.90386286 2.86168907 -45.42928416 2.70289292 -43.953125 2.57080078 C-43.04022705 2.48878418 -42.1273291 2.40676758 -41.18676758 2.32226562 C-39.70019653 2.19779053 -39.70019653 2.19779053 -38.18359375 2.07080078 C-37.15709717 1.9839502 -36.13060059 1.89709961 -35.07299805 1.80761719 C-23.39067345 0.85806644 -11.71339863 0.3497617 0 0 Z " fill="#FAFAFA" transform="translate(510.37109375,64.92919921875)"/>
<path d="M0 0 C1.4845166 0.24556641 1.4845166 0.24556641 2.99902344 0.49609375 C7.00730227 1.06629863 10.9734568 1.1105447 15.015625 1.0625 C15.75327087 1.05871338 16.49091675 1.05492676 17.25091553 1.05102539 C19.58400612 1.03891026 21.91696692 1.02027046 24.25 1 C27.33853817 0.97340742 30.42701558 0.95343771 33.515625 0.9375 C34.22189026 0.92920166 34.92815552 0.92090332 35.65582275 0.91235352 C38.72773487 0.89692953 41.05971576 1.01990525 44 2 C44 1.34 44 0.68 44 0 C44.66 0 45.32 0 46 0 C46 0.66 46 1.32 46 2 C47.58748047 2.03867188 47.58748047 2.03867188 49.20703125 2.078125 C67.41031784 2.69463196 85.69195298 5.18357514 103.3984375 9.484375 C106.00277406 10.00054981 108.35264144 10.09626758 111 10 C111 10.66 111 11.32 111 12 C111.66 12 112.32 12 113 12 C113.33 11.34 113.66 10.68 114 10 C114.33 10.66 114.66 11.32 115 12 C117.29392486 12.92332914 117.29392486 12.92332914 120.1171875 13.69921875 C121.19049316 14.01785889 122.26379883 14.33649902 123.36962891 14.66479492 C124.52640137 15.0022876 125.68317383 15.33978027 126.875 15.6875 C135.18896791 18.18351687 143.46482181 20.72250766 151.625 23.6875 C152.73077393 24.07844849 152.73077393 24.07844849 153.85888672 24.47729492 C163.19155792 27.93427816 171.21520858 33.08805823 176.1015625 42.01171875 C181.19337547 54.1226197 175.20375476 66.479563 170.72265625 77.87109375 C169.88355176 79.91651253 169.03850756 81.95950485 168.1875 84 C167.60282959 85.45031616 167.60282959 85.45031616 167.00634766 86.92993164 C163.71543981 94.57847822 159.43593622 100.44103815 152.12890625 104.65625 C138.95344791 108.98790754 129.54138882 105.60473969 116.86816406 101.27099609 C95.22542524 93.91364918 71.00126003 87.17029523 48 88 C48 87.34 48 86.68 48 86 C47.01 86 46.02 86 45 86 C45 86.66 45 87.32 45 88 C44.34 88 43.68 88 43 88 C43 87.34 43 86.68 43 86 C37.39 85.67 31.78 85.34 26 85 C26 85.66 26 86.32 26 87 C23 86 23 86 21 85 C20.67 85.66 20.34 86.32 20 87 C20 86.34 20 85.68 20 85 C-47.87810598 89.60122565 -111.7840918 110.06377181 -162.28125 157.46875 C-164.57912963 159.60815518 -166.91658807 161.6601899 -169.3125 163.6875 C-172.52802301 166.48131507 -175.29516132 169.4841468 -178.04296875 172.734375 C-180.32699715 175.37855957 -182.72652547 177.89671366 -185.125 180.4375 C-204.22295148 201.00529382 -219.20235032 225.61848001 -231 251 C-231.30969727 251.66241699 -231.61939453 252.32483398 -231.93847656 253.00732422 C-235.72893832 261.24089704 -238.92676984 269.61745259 -241.73828125 278.23046875 C-241.976642 278.95888474 -242.21500275 279.68730072 -242.46058655 280.43778992 C-243.65352637 284.0978795 -244.82527481 287.7631405 -245.96801758 291.43920898 C-252.02518609 310.59351726 -252.02518609 310.59351726 -261.125 315.5 C-261.95257813 315.9640625 -262.78015625 316.428125 -263.6328125 316.90625 C-267.68450211 318.77831781 -271.04596934 319.13723635 -275.5 319.125 C-276.4384375 319.12757813 -277.376875 319.13015625 -278.34375 319.1328125 C-281 319 -281 319 -283.21875 318.4296875 C-285.08913649 317.77603159 -285.08913649 317.77603159 -287 319 C-287.33 318.34 -287.66 317.68 -288 317 C-290.35220662 316.1142762 -292.66969162 315.3401092 -295.0703125 314.609375 C-296.53923288 314.14246277 -298.00797723 313.67499645 -299.4765625 313.20703125 C-301.7915547 312.47852695 -304.10785254 311.75526859 -306.42773438 311.04248047 C-324.89733469 305.3390996 -324.89733469 305.3390996 -330.375 296.375 C-335.36975098 286.00128643 -333.0926408 275.45239105 -329.4375 265 C-329.07180908 263.91404541 -328.70611816 262.82809082 -328.3293457 261.70922852 C-327.5836432 259.50412819 -326.83008082 257.30166895 -326.06835938 255.10205078 C-325.11554839 252.33550226 -324.19826769 249.5609611 -323.296875 246.77734375 C-318.88895973 233.37963651 -313.07943466 220.71175462 -307 208 C-306.64824707 207.25266602 -306.29649414 206.50533203 -305.93408203 205.73535156 C-295.657441 183.92945709 -282.4962042 163.73290338 -267.9453125 144.56640625 C-263.61025819 139.01435427 -263.61025819 139.01435427 -260 133 C-259.23703613 132.40050537 -258.47407227 131.80101074 -257.68798828 131.18334961 C-254.99164763 128.99321569 -253.109145 126.8094734 -250.9921875 124.06640625 C-245.98918206 117.83079131 -240.48541996 112.21543448 -234.8046875 106.59887695 C-233.10082377 104.91358732 -231.4054158 103.22011196 -229.7109375 101.52539062 C-228.6228714 100.4422304 -227.53434705 99.35953026 -226.4453125 98.27734375 C-225.94218536 97.77532944 -225.43905823 97.27331512 -224.92068481 96.75608826 C-222.6984233 94.5639125 -220.60904163 92.73936109 -218 91 C-217.01 89.515 -217.01 89.515 -216 88 C-214.57715299 86.96994667 -213.11372583 85.99480837 -211.625 85.0625 C-208.3532753 82.95662262 -205.70341092 80.81154736 -203 78 C-202.34 78 -201.68 78 -201 78 C-201 77.01 -201 76.02 -201 75 C-200.33613281 74.7834375 -199.67226563 74.566875 -198.98828125 74.34375 C-194.99895065 72.54985493 -191.70857774 70.07379087 -188.1875 67.5 C-182.25288378 63.23658522 -176.25458241 59.13132824 -170.0625 55.25 C-169.38276123 54.82009766 -168.70302246 54.39019531 -168.00268555 53.94726562 C-163.25113314 51 -163.25113314 51 -161 51 C-161 50.01 -161 49.02 -161 48 C-160.34773437 47.92652344 -159.69546875 47.85304688 -159.0234375 47.77734375 C-154.8339464 46.70020069 -151.39286545 44.6506674 -147.625 42.5625 C-133.8202317 35.11157753 -119.4071915 28.94797287 -104.75 23.375 C-104.10071533 23.12717773 -103.45143066 22.87935547 -102.7824707 22.62402344 C-100.02521665 21.60722751 -97.96816013 21 -95 21 C-94.67 20.01 -94.34 19.02 -94 18 C-94 18.66 -94 19.32 -94 20 C-93.47494873 19.81937012 -92.94989746 19.63874023 -92.40893555 19.45263672 C-62.68974075 9.34293749 -31.44547815 2.822104 0 2 C0 1.34 0 0.68 0 0 Z " fill="#FAFAFA" transform="translate(497,219)"/>
<path d="M0 0 C4.85750376 5.00002221 8.11318471 11.76213874 8.27661133 18.77099609 C7.86959763 26.97597104 5.10480037 34.03531726 2.03515625 41.58203125 C1.56529297 42.79246094 1.09542969 44.00289063 0.61132812 45.25 C-7.23093532 64.91450233 -7.23093532 64.91450233 -16.77734375 69.45703125 C-28.70283353 73.83084985 -38.88327375 71.962389 -50.77734375 68.51953125 C-84.23177985 59.3978094 -116.96106884 63.79295883 -147.13647461 80.99902344 C-152.78512798 84.33265494 -157.85314356 88.12004403 -162.77734375 92.45703125 C-163.60621094 93.15441406 -164.43507813 93.85179687 -165.2890625 94.5703125 C-183.92367485 110.63660155 -194.87534528 132.20561797 -201.77734375 155.45703125 C-201.77734375 156.11703125 -201.77734375 156.77703125 -201.77734375 157.45703125 C-202.43734375 157.45703125 -203.09734375 157.45703125 -203.77734375 157.45703125 C-203.85984375 158.42640625 -203.94234375 159.39578125 -204.02734375 160.39453125 C-205.27378812 168.74907731 -209.43542715 175.9172543 -215.77734375 181.45703125 C-218.66810008 183.3161422 -221.48744281 184.48265127 -224.77734375 185.45703125 C-225.83115234 185.77027344 -225.83115234 185.77027344 -226.90625 186.08984375 C-235.9466831 187.81931791 -245.22036433 184.0704852 -253.77734375 181.45703125 C-254.69209473 181.18262207 -255.6068457 180.90821289 -256.54931641 180.62548828 C-259.3411322 179.77896898 -262.12276665 178.9053496 -264.90234375 178.01953125 C-266.18008667 177.62411133 -266.18008667 177.62411133 -267.48364258 177.22070312 C-274.40144779 174.9353507 -281.03325493 171.82628547 -285.71484375 166.078125 C-286.24078125 164.99724609 -286.24078125 164.99724609 -286.77734375 163.89453125 C-287.14859375 163.17136719 -287.51984375 162.44820312 -287.90234375 161.703125 C-291.31499788 152.94296374 -289.69539211 144.80709047 -287.21484375 136.08203125 C-286.94381836 135.11668457 -286.67279297 134.15133789 -286.39355469 133.15673828 C-279.96565073 110.85007499 -269.97447801 90.28618538 -256.85546875 71.15429688 C-255.717142 69.43429767 -255.717142 69.43429767 -254.7734375 67.38085938 C-253.31120942 64.5567522 -251.02497286 62.70466036 -248.77734375 60.45703125 C-247.67724951 59.07436916 -246.59540141 57.67708752 -245.52734375 56.26953125 C-241.54113229 51.0745976 -237.25276328 46.23455916 -232.77734375 41.45703125 C-231.46830078 40.049375 -231.46830078 40.049375 -230.1328125 38.61328125 C-218.16560178 26.03926475 -203.36815977 14.25243926 -187.77734375 6.45703125 C-186.78734375 4.97203125 -186.78734375 4.97203125 -185.77734375 3.45703125 C-184.78734375 3.45703125 -183.79734375 3.45703125 -182.77734375 3.45703125 C-180.40720816 2.3164035 -178.09671392 1.13053545 -175.77734375 -0.10546875 C-129.5627718 -23.8670594 -42.92085493 -37.26096197 0 0 Z " fill="#FAFAFA" transform="translate(606.77734375,396.54296875)"/>
<path d="M0 0 C2.04930597 0.46581851 2.04930597 0.46581851 4.07421875 0.40234375 C4.54859375 0.89734375 5.02296875 1.39234375 5.51171875 1.90234375 C7.07391817 3.74860966 7.07391817 3.74860966 10.07421875 3.40234375 C11.10992332 4.36531626 12.10408566 5.37334336 13.07421875 6.40234375 C14.63923193 7.53232704 16.22462267 8.63437124 17.82421875 9.71484375 C25.77953377 15.26399258 31.38550632 20.81051441 37.05859375 28.6953125 C38.88757243 31.33154597 38.88757243 31.33154597 40.77734375 32.953125 C42.57612601 34.96320999 42.64342006 36.76321663 43.07421875 39.40234375 C43.6994359 41.24280981 44.34684717 43.0758286 45.01171875 44.90234375 C48.92340214 56.45247798 50.53012436 68.2661108 47.38671875 80.15234375 C47.20665283 80.84408691 47.02658691 81.53583008 46.84106445 82.24853516 C41.81644883 100.84025687 31.00034141 117.56268829 14.07421875 127.40234375 C2.43342052 133.40234375 2.43342052 133.40234375 -1.92578125 133.40234375 C-1.92578125 134.39234375 -1.92578125 135.38234375 -1.92578125 136.40234375 C-2.91578125 136.07234375 -3.90578125 135.74234375 -4.92578125 135.40234375 C-6.59716943 135.71113241 -8.26356635 136.04747685 -9.92578125 136.40234375 C-11.74107219 136.46931012 -13.55861724 136.4876336 -15.375 136.46484375 C-16.38755859 136.45710937 -17.40011719 136.449375 -18.44335938 136.44140625 C-19.48943359 136.42851563 -20.53550781 136.415625 -21.61328125 136.40234375 C-23.70046979 136.37690574 -25.78771781 136.35584847 -27.875 136.33984375 C-28.79627686 136.32824219 -29.71755371 136.31664062 -30.66674805 136.3046875 C-32.96104021 136.24990365 -32.96104021 136.24990365 -34.92578125 137.40234375 C-34.92578125 136.74234375 -34.92578125 136.08234375 -34.92578125 135.40234375 C-37.89578125 135.40234375 -40.86578125 135.40234375 -43.92578125 135.40234375 C-43.92578125 134.41234375 -43.92578125 133.42234375 -43.92578125 132.40234375 C-44.65410156 132.29148437 -45.38242187 132.180625 -46.1328125 132.06640625 C-49.87419551 131.17684665 -52.67796161 129.34639536 -55.9375 127.36328125 C-56.59363281 127.04617188 -57.24976563 126.7290625 -57.92578125 126.40234375 C-58.58578125 126.73234375 -59.24578125 127.06234375 -59.92578125 127.40234375 C-59.92578125 126.41234375 -59.92578125 125.42234375 -59.92578125 124.40234375 C-60.77076172 124.02722656 -60.77076172 124.02722656 -61.6328125 123.64453125 C-70.44108087 118.87276065 -80.70672221 108.05952086 -83.92578125 98.40234375 C-84.75168395 96.21202747 -85.5859542 94.0248589 -86.42578125 91.83984375 C-86.86921875 90.68355469 -87.31265625 89.52726563 -87.76953125 88.3359375 C-88.82740922 85.52568129 -88.82740922 85.52568129 -89.92578125 83.40234375 C-92.24795612 60.43861448 -89.2080847 40.91998566 -74.5234375 22.3671875 C-62.38953953 7.95035956 -46.25797772 -0.15809591 -27.50390625 -2.38671875 C-18.22066908 -2.93398382 -9.08772375 -1.86101368 0 0 Z " fill="#FAFBFB" transform="translate(547.92578125,522.59765625)"/>
<path d="M0 0 C-1.63778045 4.19625909 -4.73323182 6.98676785 -7.8828125 10.078125 C-8.45707977 10.64956238 -9.03134705 11.22099976 -9.62301636 11.80975342 C-11.4523581 13.62792945 -13.28854193 15.43901492 -15.125 17.25 C-16.36894774 18.48391329 -17.6124427 19.71828322 -18.85546875 20.953125 C-21.89842367 23.97406743 -24.94753254 26.98867092 -28 30 C-28.66 29.67 -29.32 29.34 -30 29 C-24.81583023 22.8603597 -19.29085831 17.10457045 -13.60961914 11.42431641 C-12.16718144 9.97965004 -10.73298435 8.52710146 -9.29882812 7.07421875 C-8.38939453 6.16285156 -7.47996094 5.25148438 -6.54296875 4.3125 C-5.71821045 3.48363281 -4.89345215 2.65476562 -4.04370117 1.80078125 C-2 0 -2 0 0 0 Z " fill="#C6C6C6" transform="translate(278,312)"/>
<path d="M0 0 C-1.56282982 3.76603869 -3.9063475 6.13639151 -6.7890625 8.984375 C-7.25234955 9.44483215 -7.7156366 9.90528931 -8.19296265 10.37969971 C-9.66565898 11.84125078 -11.14517403 13.29567168 -12.625 14.75 C-13.62806322 15.74302611 -14.63067257 16.73651089 -15.6328125 17.73046875 C-18.08330835 20.15897941 -20.5399667 22.58114675 -23 25 C-23.66 24.67 -24.32 24.34 -25 24 C-20.11111914 18.2739886 -15.00824847 12.82567965 -9.6875 7.5 C-8.97271484 6.77296875 -8.25792969 6.0459375 -7.52148438 5.296875 C-6.83763672 4.61109375 -6.15378906 3.9253125 -5.44921875 3.21875 C-4.83393311 2.59935547 -4.21864746 1.97996094 -3.5847168 1.34179688 C-2 0 -2 0 0 0 Z " fill="#C2C2C3" transform="translate(164,201)"/>
<path d="M0 0 C6.15458602 -0.20178971 11.67903821 0.34005837 17.71484375 1.5625 C19.93961065 2.06267927 19.93961065 2.06267927 22 2 C22.474375 2.495 22.94875 2.99 23.4375 3.5 C24.99969942 5.34626591 24.99969942 5.34626591 28 5 C29.03337723 5.96546958 30.02712399 6.97359254 31 8 C33.57333674 9.84573194 36.19426786 11.60918051 38.8203125 13.37890625 C41 15 41 15 42 17 C38.81005588 15.50792936 36.02666372 13.6763303 33.125 11.6875 C22.89344302 5.15671895 11.96949446 2.33215304 0 1 C0 0.67 0 0.34 0 0 Z " fill="#686969" transform="translate(530,521)"/>
<path d="M0 0 C-1.45241736 3.33234574 -3.2850086 5.54225606 -5.84375 8.109375 C-6.59527344 8.86347656 -7.34679687 9.61757813 -8.12109375 10.39453125 C-8.90613281 11.17183594 -9.69117188 11.94914062 -10.5 12.75 C-11.28503906 13.54277344 -12.07007813 14.33554687 -12.87890625 15.15234375 C-14.00619141 16.27576172 -14.00619141 16.27576172 -15.15625 17.421875 C-15.84525391 18.10862305 -16.53425781 18.79537109 -17.24414062 19.50292969 C-19 21 -19 21 -21 21 C-19.54758264 17.66765426 -17.7149914 15.45774394 -15.15625 12.890625 C-14.40472656 12.13652344 -13.65320313 11.38242187 -12.87890625 10.60546875 C-12.09386719 9.82816406 -11.30882812 9.05085938 -10.5 8.25 C-9.71496094 7.45722656 -8.92992187 6.66445313 -8.12109375 5.84765625 C-7.36957031 5.09871094 -6.61804688 4.34976562 -5.84375 3.578125 C-4.81024414 2.54800293 -4.81024414 2.54800293 -3.75585938 1.49707031 C-2 0 -2 0 0 0 Z " fill="#C6C7C7" transform="translate(388,426)"/>
<path d="M0 0 C0.33 0 0.66 0 1 0 C2.76527805 10.33948571 3.90880789 18.81917239 1 29 C0.67 29 0.34 29 0 29 C0 19.43 0 9.86 0 0 Z " fill="#4B4C4C" transform="translate(594,574)"/>
<path d="M0 0 C0 3 0 3 -2.40625 5.69921875 C-3.4299968 6.70302243 -4.4616054 7.69885649 -5.5 8.6875 C-6.02464844 9.19861328 -6.54929687 9.70972656 -7.08984375 10.23632812 C-8.38660904 11.49772708 -9.69246117 12.74977212 -11 14 C-11.66 13.67 -12.32 13.34 -13 13 C-11.21188257 11.01752198 -9.41974481 9.03896272 -7.625 7.0625 C-7.11710937 6.49853516 -6.60921875 5.93457031 -6.0859375 5.35351562 C-2.2265625 1.11328125 -2.2265625 1.11328125 0 0 Z " fill="#C0C0C0" transform="translate(484,535)"/>
<path d="M0 0 C4.7946595 0.63087625 9.23372548 1.92401307 13.828125 3.37890625 C15.94399664 4.09164984 15.94399664 4.09164984 18 4 C19.5 5.375 19.5 5.375 21 7 C21.66 7.66 22.32 8.32 23 9 C17.94514073 8.26905294 13.40096821 6.31619096 8.6875 4.4375 C7.85154297 4.10814453 7.01558594 3.77878906 6.15429688 3.43945312 C4.10136454 2.63001123 2.05002714 1.81676543 0 1 C0 0.67 0 0.34 0 0 Z " fill="#676767" transform="translate(693,95)"/>
<path d="M0 0 C2.31 0.66 4.62 1.32 7 2 C7 2.33 7 2.66 7 3 C2.38 3 -2.24 3 -7 3 C-7 2.67 -7 2.34 -7 2 C-4.69 2 -2.38 2 0 2 C0 1.34 0 0.68 0 0 Z " fill="#7B7C7C" transform="translate(497,219)"/>
<path d="M0 0 C0.99 0 1.98 0 3 0 C2.34 3.63 1.68 7.26 1 11 C0.67 11 0.34 11 0 11 C0 7.37 0 3.74 0 0 Z " fill="#7A7A7C" transform="translate(594,592)"/>
<path d="" fill="#949494" transform="translate(0,0)"/>
<path d="M0 0 C3 1 3 1 3 1 Z " fill="#808080" transform="translate(459,154)"/>
<path d="" fill="#6F6F6F" transform="translate(0,0)"/>
<path d="" fill="#7F7F7F" transform="translate(0,0)"/>
<path d="" fill="#A6A6A6" transform="translate(0,0)"/>
<path d="" fill="#A6A6A6" transform="translate(0,0)"/>
<path d="" fill="#6F6F6F" transform="translate(0,0)"/>
<path d="" fill="#6F6F6F" transform="translate(0,0)"/>
<path d="" fill="#6F6F6F" transform="translate(0,0)"/>
<path d="" fill="#A6A6A6" transform="translate(0,0)"/>
<path d="" fill="#6F6F6F" transform="translate(0,0)"/>
<path d="" fill="#6F6F6F" transform="translate(0,0)"/>
<path d="" fill="#6F6F6F" transform="translate(0,0)"/>
<path d="" fill="#6F6F6F" transform="translate(0,0)"/>
<path d="" fill="#6F6F6F" transform="translate(0,0)"/>
<path d="" fill="#6F6F6F" transform="translate(0,0)"/>
<path d="" fill="#6F6F6F" transform="translate(0,0)"/>
<path d="" fill="#DEDEDE" transform="translate(0,0)"/>
<path d="" fill="#DEDEDE" transform="translate(0,0)"/>
<path d="" fill="#DEDEDE" transform="translate(0,0)"/>
<path d="" fill="#808080" transform="translate(0,0)"/>
<path d="" fill="#808080" transform="translate(0,0)"/>
<path d="" fill="#808080" transform="translate(0,0)"/>
<path d="" fill="#808080" transform="translate(0,0)"/>
</svg>
